<?xml version="1.0" encoding="utf-8"?>
<!-- Generator: Adobe Illustrator 15.1.0, SVG Export Plug-In . SVG Version: 6.00 Build 0)  -->
<!DOCTYPE svg PUBLIC "-//W3C//DTD SVG 1.1//EN" "http://www.w3.org/Graphics/SVG/1.1/DTD/svg11.dtd">
<svg version="1.1" id="Layer_1" xmlns="http://www.w3.org/2000/svg" xmlns:xlink="http://www.w3.org/1999/xlink" x="0px" y="0px"
	 width="70px" height="70px" viewBox="0 0 70 70" enable-background="new 0 0 70 70" xml:space="preserve">
<path fill="#FFFFFF" d="M5.25,27.875L34.5,70l30.125-42.125l-18.752,0.116l-1.677-6.159L48.75,20.5c0,0,8.5-3.75,5-13.75
	c0,0-4.25-8.485-12.75-5.68c0,0-6.021,1.515-6.573,5.285c0,0-6.119-0.945-7.023,4.225l-11.021,4.116c0,0-3.647,0.488-2.328,6.892
	l1.878,6.403L5.25,27.875z"/>
<path d="M63.878,27.991H45.873l-1.844-6.773c5.386-0.442,9.779-4.868,9.779-10.062c0-5.561-4.687-10.086-10.447-10.086
	c-3.947,0-7.498,2.251-9.19,5.78c-0.546-0.191-1.118-0.287-1.707-0.287c-2.573,0-4.76,1.906-5.137,4.407
	c-1.625,0.527-8.513,2.761-10.043,3.297c-1.715,0.6-4.597,2.901-3.229,7.321c0.292,0.944,0.428,1.395,0.518,1.694
	c0.161,0.534,0.177,0.59,0.658,2.032c0.331,0.989,0.59,1.851,0.702,2.677H6.154l6.021,8.601c0.033,0.1,0.094,0.188,0.18,0.258
	l22.37,31.957L63.878,27.991L63.878,27.991z M46.18,29.114h15.519L34.733,66.861l-7.429-10.613c1.211-1.823,3.337-4.877,5.052-7.342
	c0.926-1.33,1.734-2.491,2.217-3.2c1.424-2.082,3.501-3.124,5.956-3.124h2.625c0.816,0,1.551-0.337,2.004-0.922
	c0.415-0.537,0.543-1.221,0.361-1.918l-1.656-6.701h3.384L46.18,29.114z M45.779,31.919h-3.35l0.834,3.371h-5.869l0.28,1.122
	l5.864-0.002l0.893,3.607c0.096,0.364,0.039,0.695-0.16,0.955c-0.235,0.305-0.656,0.485-1.125,0.485H29.117
	c-0.959,0-2.226-0.737-2.477-1.7l-1.547-7.226l-0.881-0.107l-0.067-0.004c-1.379,0-2.824-1.468-3.155-3.206
	c-0.162-0.852,0.008-1.658,0.465-2.211c0.373-0.45,0.902-0.698,1.489-0.698c1.108,0,2.278,1.008,2.844,2.45l0.141,0.356h19.086
	L45.779,31.919z M17.653,15.327c1.718-0.602,10.276-3.373,10.362-3.4l0.358-0.116l0.029-0.376c0.158-2.102,1.942-3.749,4.061-3.749
	c0.614,0,1.205,0.134,1.754,0.397l0.535,0.256l0.227-0.547c1.41-3.401,4.701-5.599,8.382-5.599c5.142,0,9.324,4.021,9.324,8.963
	c0,4.867-4.367,8.979-9.539,8.979H14.876C14.5,17.266,16.441,15.75,17.653,15.327 M15.127,21.258h27.752l1.831,6.733H26.682
	c-0.791-1.693-2.255-2.806-3.737-2.806c-0.928,0-1.764,0.392-2.354,1.104c-0.672,0.812-0.929,1.956-0.704,3.137
	c0.438,2.294,2.288,4.095,4.222,4.118l0.055,0.006l1.385,6.468c0.4,1.533,2.168,2.563,3.569,2.563h7.092
	c-0.971,0.583-1.821,1.41-2.561,2.491c-0.482,0.707-1.289,1.863-2.212,3.191c-1.608,2.312-3.577,5.139-4.821,6.996L13.394,36.376
	c0.319-0.49,0.716-1.06,1.106-1.619c0.586-0.841,1.194-1.71,1.573-2.364c1.593-2.74,1.097-4.809,0.222-7.434
	c-0.476-1.426-0.492-1.48-0.647-2L15.127,21.258 M15.981,29.114c-0.047,0.861-0.305,1.729-0.878,2.716
	c-0.355,0.613-0.95,1.462-1.523,2.285c-0.3,0.43-0.603,0.865-0.877,1.273l-4.392-6.274H15.981z M40.762,25.189l-0.281-1.122h-6.732
	l0.28,1.122H40.762z"/>
</svg>
